<mxfile host="app.diagrams.net" modified="2024-02-03T08:56:50.024Z" agent="Mozilla/5.0 (Windows NT 10.0; Win64; x64) AppleWebKit/537.36 (KHTML, like Gecko) Chrome/121.0.0.0 Safari/537.36" etag="oEBgmOd9Ix-Fc6R-PtWy" version="23.1.1" type="device">
  <diagram id="C5RBs43oDa-KdzZeNtuy" name="Page-1">
    <mxGraphModel dx="1273" dy="869" grid="1" gridSize="10" guides="1" tooltips="1" connect="1" arrows="1" fold="1" page="1" pageScale="1" pageWidth="583" pageHeight="827" math="0" shadow="0">
      <root>
        <mxCell id="WIyWlLk6GJQsqaUBKTNV-0" />
        <mxCell id="WIyWlLk6GJQsqaUBKTNV-1" parent="WIyWlLk6GJQsqaUBKTNV-0" />
        <mxCell id="J63WYRPOY1QxVzIfPOvq-1" style="edgeStyle=orthogonalEdgeStyle;rounded=0;orthogonalLoop=1;jettySize=auto;html=1;exitX=1;exitY=0.5;exitDx=0;exitDy=0;entryX=0;entryY=0.5;entryDx=0;entryDy=0;fontSize=18;fillColor=#e1d5e7;strokeColor=#9673a6;" edge="1" parent="WIyWlLk6GJQsqaUBKTNV-1" source="WIyWlLk6GJQsqaUBKTNV-3" target="WIyWlLk6GJQsqaUBKTNV-7">
          <mxGeometry relative="1" as="geometry" />
        </mxCell>
        <mxCell id="WIyWlLk6GJQsqaUBKTNV-3" value="input word/s" style="rounded=1;whiteSpace=wrap;html=1;fontSize=18;glass=0;strokeWidth=1;shadow=0;fillColor=#e1d5e7;strokeColor=#9673a6;" parent="WIyWlLk6GJQsqaUBKTNV-1" vertex="1">
          <mxGeometry x="40" y="141.25" width="80" height="59.5" as="geometry" />
        </mxCell>
        <mxCell id="J63WYRPOY1QxVzIfPOvq-2" style="edgeStyle=orthogonalEdgeStyle;rounded=0;orthogonalLoop=1;jettySize=auto;html=1;entryX=0;entryY=0.5;entryDx=0;entryDy=0;fontSize=18;fillColor=#e1d5e7;strokeColor=#9673a6;" edge="1" parent="WIyWlLk6GJQsqaUBKTNV-1" source="WIyWlLk6GJQsqaUBKTNV-7" target="WIyWlLk6GJQsqaUBKTNV-12">
          <mxGeometry relative="1" as="geometry" />
        </mxCell>
        <mxCell id="WIyWlLk6GJQsqaUBKTNV-7" value="get related words from word2vec model" style="rounded=1;whiteSpace=wrap;html=1;fontSize=18;glass=0;strokeWidth=1;shadow=0;fillColor=#e1d5e7;strokeColor=#9673a6;" parent="WIyWlLk6GJQsqaUBKTNV-1" vertex="1">
          <mxGeometry x="192" y="131.25" width="200" height="79.5" as="geometry" />
        </mxCell>
        <mxCell id="J63WYRPOY1QxVzIfPOvq-6" value="" style="edgeStyle=orthogonalEdgeStyle;rounded=0;orthogonalLoop=1;jettySize=auto;html=1;fontSize=18;fillColor=#e1d5e7;strokeColor=#9673a6;" edge="1" parent="WIyWlLk6GJQsqaUBKTNV-1" source="WIyWlLk6GJQsqaUBKTNV-11" target="J63WYRPOY1QxVzIfPOvq-5">
          <mxGeometry relative="1" as="geometry" />
        </mxCell>
        <mxCell id="WIyWlLk6GJQsqaUBKTNV-11" value="use&amp;nbsp;Key Word In Context (KWIC) to find relevant sentences from the transcript" style="rounded=1;whiteSpace=wrap;html=1;fontSize=18;glass=0;strokeWidth=1;shadow=0;fillColor=#e1d5e7;strokeColor=#9673a6;" parent="WIyWlLk6GJQsqaUBKTNV-1" vertex="1">
          <mxGeometry x="725" y="110" width="260" height="122" as="geometry" />
        </mxCell>
        <mxCell id="J63WYRPOY1QxVzIfPOvq-3" style="edgeStyle=orthogonalEdgeStyle;rounded=0;orthogonalLoop=1;jettySize=auto;html=1;exitX=1;exitY=0.5;exitDx=0;exitDy=0;entryX=0;entryY=0.5;entryDx=0;entryDy=0;fontSize=18;fillColor=#e1d5e7;strokeColor=#9673a6;" edge="1" parent="WIyWlLk6GJQsqaUBKTNV-1" source="WIyWlLk6GJQsqaUBKTNV-12" target="WIyWlLk6GJQsqaUBKTNV-11">
          <mxGeometry relative="1" as="geometry" />
        </mxCell>
        <mxCell id="WIyWlLk6GJQsqaUBKTNV-12" value="check if transcript contains any of the related words" style="rounded=1;whiteSpace=wrap;html=1;fontSize=18;glass=0;strokeWidth=1;shadow=0;fillColor=#e1d5e7;strokeColor=#9673a6;" parent="WIyWlLk6GJQsqaUBKTNV-1" vertex="1">
          <mxGeometry x="440" y="123.75" width="200" height="94.5" as="geometry" />
        </mxCell>
        <mxCell id="J63WYRPOY1QxVzIfPOvq-5" value="make graph" style="whiteSpace=wrap;html=1;rounded=1;glass=0;strokeWidth=1;shadow=0;fontSize=18;fillColor=#e1d5e7;strokeColor=#9673a6;" vertex="1" parent="WIyWlLk6GJQsqaUBKTNV-1">
          <mxGeometry x="1030" y="141.25" width="90" height="61" as="geometry" />
        </mxCell>
        <mxCell id="J63WYRPOY1QxVzIfPOvq-7" style="edgeStyle=orthogonalEdgeStyle;rounded=0;orthogonalLoop=1;jettySize=auto;html=1;exitX=1;exitY=0.5;exitDx=0;exitDy=0;entryX=0;entryY=0.5;entryDx=0;entryDy=0;fontSize=18;fillColor=#dae8fc;strokeColor=#6c8ebf;" edge="1" parent="WIyWlLk6GJQsqaUBKTNV-1" source="J63WYRPOY1QxVzIfPOvq-8" target="J63WYRPOY1QxVzIfPOvq-10">
          <mxGeometry relative="1" as="geometry" />
        </mxCell>
        <mxCell id="J63WYRPOY1QxVzIfPOvq-8" value="input word/s" style="rounded=1;whiteSpace=wrap;html=1;fontSize=18;glass=0;strokeWidth=1;shadow=0;fillColor=#dae8fc;strokeColor=#6c8ebf;" vertex="1" parent="WIyWlLk6GJQsqaUBKTNV-1">
          <mxGeometry x="40" y="382.24" width="80" height="62" as="geometry" />
        </mxCell>
        <mxCell id="J63WYRPOY1QxVzIfPOvq-15" style="edgeStyle=orthogonalEdgeStyle;rounded=0;orthogonalLoop=1;jettySize=auto;html=1;exitX=1;exitY=0.5;exitDx=0;exitDy=0;entryX=0;entryY=0.5;entryDx=0;entryDy=0;fontSize=18;fillColor=#dae8fc;strokeColor=#6c8ebf;" edge="1" parent="WIyWlLk6GJQsqaUBKTNV-1" source="J63WYRPOY1QxVzIfPOvq-10" target="J63WYRPOY1QxVzIfPOvq-12">
          <mxGeometry relative="1" as="geometry" />
        </mxCell>
        <mxCell id="J63WYRPOY1QxVzIfPOvq-10" value="search Padma transcripts&amp;nbsp;" style="rounded=1;whiteSpace=wrap;html=1;fontSize=18;glass=0;strokeWidth=1;shadow=0;fillColor=#dae8fc;strokeColor=#6c8ebf;" vertex="1" parent="WIyWlLk6GJQsqaUBKTNV-1">
          <mxGeometry x="270" y="375.61" width="170" height="73.25" as="geometry" />
        </mxCell>
        <mxCell id="J63WYRPOY1QxVzIfPOvq-18" value="" style="edgeStyle=orthogonalEdgeStyle;rounded=0;orthogonalLoop=1;jettySize=auto;html=1;fontSize=18;fillColor=#dae8fc;strokeColor=#6c8ebf;" edge="1" parent="WIyWlLk6GJQsqaUBKTNV-1" source="J63WYRPOY1QxVzIfPOvq-12" target="J63WYRPOY1QxVzIfPOvq-17">
          <mxGeometry relative="1" as="geometry" />
        </mxCell>
        <mxCell id="J63WYRPOY1QxVzIfPOvq-12" value="use&amp;nbsp;Key Word In Context (KWIC) to find relevant sentences from the transcript" style="rounded=1;whiteSpace=wrap;html=1;fontSize=18;glass=0;strokeWidth=1;shadow=0;fillColor=#dae8fc;strokeColor=#6c8ebf;" vertex="1" parent="WIyWlLk6GJQsqaUBKTNV-1">
          <mxGeometry x="590" y="336" width="250" height="154.5" as="geometry" />
        </mxCell>
        <mxCell id="J63WYRPOY1QxVzIfPOvq-17" value="make graph" style="whiteSpace=wrap;html=1;rounded=1;glass=0;strokeWidth=1;shadow=0;fontSize=18;fillColor=#dae8fc;strokeColor=#6c8ebf;" vertex="1" parent="WIyWlLk6GJQsqaUBKTNV-1">
          <mxGeometry x="1000" y="382.24" width="120" height="60" as="geometry" />
        </mxCell>
        <mxCell id="J63WYRPOY1QxVzIfPOvq-19" style="edgeStyle=orthogonalEdgeStyle;rounded=0;orthogonalLoop=1;jettySize=auto;html=1;exitX=1;exitY=0.5;exitDx=0;exitDy=0;entryX=0;entryY=0.5;entryDx=0;entryDy=0;fontSize=18;fillColor=#d5e8d4;strokeColor=#82b366;" edge="1" parent="WIyWlLk6GJQsqaUBKTNV-1" source="J63WYRPOY1QxVzIfPOvq-20" target="J63WYRPOY1QxVzIfPOvq-22">
          <mxGeometry relative="1" as="geometry" />
        </mxCell>
        <mxCell id="J63WYRPOY1QxVzIfPOvq-20" value="input word/s" style="rounded=1;whiteSpace=wrap;html=1;fontSize=18;glass=0;strokeWidth=1;shadow=0;fillColor=#d5e8d4;strokeColor=#82b366;" vertex="1" parent="WIyWlLk6GJQsqaUBKTNV-1">
          <mxGeometry x="40" y="620.01" width="90" height="62" as="geometry" />
        </mxCell>
        <mxCell id="J63WYRPOY1QxVzIfPOvq-27" value="" style="edgeStyle=orthogonalEdgeStyle;rounded=0;orthogonalLoop=1;jettySize=auto;html=1;fontSize=18;fillColor=#d5e8d4;strokeColor=#82b366;" edge="1" parent="WIyWlLk6GJQsqaUBKTNV-1" source="J63WYRPOY1QxVzIfPOvq-22" target="J63WYRPOY1QxVzIfPOvq-26">
          <mxGeometry relative="1" as="geometry" />
        </mxCell>
        <mxCell id="J63WYRPOY1QxVzIfPOvq-22" value="use a scraper with Rekhta to download nazms" style="rounded=1;whiteSpace=wrap;html=1;fontSize=18;glass=0;strokeWidth=1;shadow=0;fillColor=#d5e8d4;strokeColor=#82b366;" vertex="1" parent="WIyWlLk6GJQsqaUBKTNV-1">
          <mxGeometry x="192" y="600.3199999999999" width="188" height="101.38" as="geometry" />
        </mxCell>
        <mxCell id="J63WYRPOY1QxVzIfPOvq-23" value="" style="edgeStyle=orthogonalEdgeStyle;rounded=0;orthogonalLoop=1;jettySize=auto;html=1;fontSize=18;fillColor=#d5e8d4;strokeColor=#82b366;" edge="1" parent="WIyWlLk6GJQsqaUBKTNV-1" source="J63WYRPOY1QxVzIfPOvq-24" target="J63WYRPOY1QxVzIfPOvq-25">
          <mxGeometry relative="1" as="geometry" />
        </mxCell>
        <mxCell id="J63WYRPOY1QxVzIfPOvq-24" value="use&amp;nbsp;Key Word In Context (KWIC) to find relevant sentences from the transcript" style="rounded=1;whiteSpace=wrap;html=1;fontSize=18;glass=0;strokeWidth=1;shadow=0;fillColor=#d5e8d4;strokeColor=#82b366;" vertex="1" parent="WIyWlLk6GJQsqaUBKTNV-1">
          <mxGeometry x="784.5" y="570" width="180" height="162.01" as="geometry" />
        </mxCell>
        <mxCell id="J63WYRPOY1QxVzIfPOvq-25" value="make graph" style="whiteSpace=wrap;html=1;rounded=1;glass=0;strokeWidth=1;shadow=0;fontSize=18;fillColor=#d5e8d4;strokeColor=#82b366;" vertex="1" parent="WIyWlLk6GJQsqaUBKTNV-1">
          <mxGeometry x="1030" y="617.4200000000001" width="90" height="67.19" as="geometry" />
        </mxCell>
        <mxCell id="J63WYRPOY1QxVzIfPOvq-30" value="" style="edgeStyle=orthogonalEdgeStyle;rounded=0;orthogonalLoop=1;jettySize=auto;html=1;fontSize=18;fillColor=#d5e8d4;strokeColor=#82b366;" edge="1" parent="WIyWlLk6GJQsqaUBKTNV-1" source="J63WYRPOY1QxVzIfPOvq-26" target="J63WYRPOY1QxVzIfPOvq-29">
          <mxGeometry relative="1" as="geometry" />
        </mxCell>
        <mxCell id="J63WYRPOY1QxVzIfPOvq-26" value="translate query from english to hindi" style="whiteSpace=wrap;html=1;rounded=1;glass=0;strokeWidth=1;shadow=0;fontSize=18;fillColor=#d5e8d4;strokeColor=#82b366;" vertex="1" parent="WIyWlLk6GJQsqaUBKTNV-1">
          <mxGeometry x="430" y="595" width="116" height="112.01" as="geometry" />
        </mxCell>
        <mxCell id="J63WYRPOY1QxVzIfPOvq-31" style="edgeStyle=orthogonalEdgeStyle;rounded=0;orthogonalLoop=1;jettySize=auto;html=1;entryX=0;entryY=0.5;entryDx=0;entryDy=0;fontSize=18;fillColor=#d5e8d4;strokeColor=#82b366;" edge="1" parent="WIyWlLk6GJQsqaUBKTNV-1" source="J63WYRPOY1QxVzIfPOvq-29" target="J63WYRPOY1QxVzIfPOvq-24">
          <mxGeometry relative="1" as="geometry" />
        </mxCell>
        <mxCell id="J63WYRPOY1QxVzIfPOvq-29" value="filter nazms using hindi translation" style="whiteSpace=wrap;html=1;rounded=1;glass=0;strokeWidth=1;shadow=0;fontSize=18;fillColor=#d5e8d4;strokeColor=#82b366;" vertex="1" parent="WIyWlLk6GJQsqaUBKTNV-1">
          <mxGeometry x="605" y="600.3199999999999" width="120" height="101.39" as="geometry" />
        </mxCell>
        <mxCell id="J63WYRPOY1QxVzIfPOvq-32" value="&lt;font style=&quot;font-size: 22px;&quot;&gt;Radia&lt;/font&gt;" style="text;html=1;align=center;verticalAlign=middle;resizable=0;points=[];autosize=1;fontStyle=1;fontColor=#333333;labelBackgroundColor=none;fillColor=#f5f5f5;strokeColor=none;" vertex="1" parent="WIyWlLk6GJQsqaUBKTNV-1">
          <mxGeometry x="30" y="60" width="80" height="40" as="geometry" />
        </mxCell>
        <mxCell id="J63WYRPOY1QxVzIfPOvq-33" value="&lt;font style=&quot;font-size: 22px;&quot;&gt;Padma&lt;/font&gt;" style="text;html=1;align=center;verticalAlign=middle;resizable=0;points=[];autosize=1;strokeColor=none;fillColor=#f5f5f5;fontColor=#333333;fontStyle=1" vertex="1" parent="WIyWlLk6GJQsqaUBKTNV-1">
          <mxGeometry x="25" y="296" width="100" height="40" as="geometry" />
        </mxCell>
        <mxCell id="J63WYRPOY1QxVzIfPOvq-34" value="&lt;font style=&quot;font-size: 22px;&quot;&gt;Rekhta&lt;br&gt;&lt;/font&gt;" style="text;html=1;align=center;verticalAlign=middle;resizable=0;points=[];autosize=1;strokeColor=none;fillColor=#f5f5f5;fontColor=#333333;fontStyle=1" vertex="1" parent="WIyWlLk6GJQsqaUBKTNV-1">
          <mxGeometry x="25" y="540" width="100" height="40" as="geometry" />
        </mxCell>
      </root>
    </mxGraphModel>
  </diagram>
</mxfile>
